<?xml version="1.0" encoding="utf-8"?>
<!-- Generator: Adobe Illustrator 27.9.0, SVG Export Plug-In . SVG Version: 6.00 Build 0)  -->
<svg version="1.1" id="Layer_1" xmlns="http://www.w3.org/2000/svg" xmlns:xlink="http://www.w3.org/1999/xlink" x="0px" y="0px"
	 viewBox="0 0 2323.2 1446.4" style="enable-background:new 0 0 2323.2 1446.4;" xml:space="preserve">
<style type="text/css">
	.st0{fill:#F2EBDD;}
	.st1{fill:#D71F26;}
	.st2{fill:#0059A9;}
	.st3{fill:#FFC83B;}
	.st4{fill:#2A312D;}
</style>
<g>
	<path class="st0" d="M2116,562.7c-6.8-12.2-20.4-19.7-34.6-19.7H1837c-101.1-198.9-365.8-341.4-675.4-341.4S587.5,343.4,486.3,543
		h-65.8c-24.4,0-47.5,12.9-59.7,34.6L206.7,844.4c-6.8,12.2-6.8,27.8,0,40c6.8,12.2,20.4,19.7,34.6,19.7h244.3
		c101.8,198.9,365.8,340.7,675.4,340.7s573.5-141.9,675.4-340.7h65.8c24.4,0,47.5-12.9,59.7-34.6L2116,602.7
		C2123.5,590.5,2123.5,574.9,2116,562.7z"/>
	<g>
		<path class="st1" d="M1807.8,543c-101.1-183.9-352.3-314.9-646.2-314.9S616.6,358.4,515.5,543H1807.8z"/>
		<path class="st1" d="M516.2,903.4c101.1,183.9,352.3,314.3,645.5,314.3c293.9,0,545-130.3,645.5-314.3H516.2z"/>
	</g>
	<path class="st2" d="M1902.9,876.9H242c-10.2,0-17-10.9-11.5-20.4l154.1-266.7c7.5-12.9,21.7-21,36.7-21h1660.9
		c10.2,0,17,10.9,11.5,20.4l-154.1,266.7C1932,868.8,1917.8,876.9,1902.9,876.9z"/>
	<g>
		<g>
			<path class="st0" d="M1648.3,667.5c-49.5,0-100.5,30.5-121.5,67.9c-29.9,53.6,0,98.4,59.1,98.4c30.5,0,58.4-11.5,69.9-16.3
				c3.4-1.4,6.1-4.1,7.5-6.8l13.6-23.8c2-4.1-0.7-8.8-4.8-8.8h-21.7c-3.4,0-6.8,1.4-9.5,4.1c-9.5,10.2-25.8,17.6-38.7,17.6
				c-19,0-28.5-12.2-21.7-35.3c2-4.8,5.4-6.8,10.9-6.8h99.8c4.1,0,8.1-2,10.2-5.4l0,0c11.5-17,14.9-38.7,6.8-55
				C1701.3,679.7,1677.5,667.5,1648.3,667.5L1648.3,667.5z M1654.4,723.8c-2,4.1-6.1,6.8-10.9,6.8h-39.4c-2,0-2.7-2-2-4.1
				c12.2-14.3,27.1-25.8,41.4-25.8c10.2,0,12.9,5.4,12.9,12.9C1657.2,717.7,1656.5,721.1,1654.4,723.8"/>
			<path class="st0" d="M1303.5,677.7l-66.5,42.1c-4.1,2.7-9.5-2-6.8-6.8l48.9-84.2c2-3.4-0.7-7.5-4.1-7.5h-82.1
				c-2.7,0-5.4,1.4-6.8,4.1l-7.5,12.9c-1.4,2.7,0,6.1,3.4,6.8l14.3,3.4c3.4,0.7,4.8,4.1,3.4,6.8l-77.4,134.4
				c-2,3.4-6.1,6.1-10.2,6.8l-25.1,4.1c-1.4,0-2.7,1.4-3.4,2l-7.5,12.9c-2,3.4,0.7,7.5,4.1,7.5h80.8c4.1,0,7.5-2,9.5-5.4l30.5-52.9
				c2-3.4,6.1-3.4,8.1,0l31.2,52.9c2,3.4,5.4,5.4,9.5,5.4h59.7c2.7,0,5.4-1.4,6.8-4.1l7.5-12.2c1.4-2.7,0-6.8-3.4-6.8l-21.7-4.1
				c-1.4,0-2.7-1.4-3.4-2l-25.1-43.4c-1.4-2-0.7-4.8,1.4-6.8l58.4-38c0.7-0.7,1.4-0.7,2-0.7l29.2-6.8c1.4,0,2.7-1.4,3.4-2l7.5-12.9
				c2-3.4-0.7-7.5-4.1-7.5H1309C1306.2,676.3,1304.9,677,1303.5,677.7L1303.5,677.7z"/>
			<path class="st0" d="M1084.3,679.7l-4.1,4.8c-2,2-4.8,2-6.8,0c-8.1-10.9-23.1-17.6-43.4-17.6c-50.9,0-95.7,30.5-116.1,67.9
				c-29.9,53.6,1.4,98.4,61.1,98.4c35.3,0,60.4-11.5,69.9-17c2-1.4,4.1-3.4,5.4-5.4l15.6-27.1c1.4-2.7-0.7-6.8-4.1-6.8h-26.5
				c-2,0-4.1,0.7-5.4,2c-9.5,11.5-25.8,19.7-38,19.7c-22.4,0-31.2-15.6-21.7-42.8c8.8-23.8,33.9-55.7,63.8-55.7
				c17,0,24.4,10.2,26.5,25.1c0,2.7,2.7,4.1,4.8,4.1h27.1c2,0,3.4-0.7,4.8-2.7l25.8-44.8c2-2.7-0.7-6.8-4.1-6.8h-29.2
				C1088.4,676.3,1086.3,677.7,1084.3,679.7L1084.3,679.7z"/>
			<path class="st0" d="M895.6,676.3h-82.1c-3.4,0-6.1,1.4-7.5,4.1l-7.5,12.9c-1.4,2.7,0,6.1,2.7,6.8l14.9,3.4
				c3.4,0.7,5.4,4.8,3.4,7.5L773.4,791c-2,3.4-4.8,5.4-8.8,6.1l-25.1,4.1c-2,0-3.4,1.4-4.8,3.4l-7.5,12.9c-1.4,2.7,0.7,6.8,4.1,6.8
				h114.7c4.1,0,8.1-2,10.2-6.1l5.4-9.5c2-3.4,0-7.5-4.1-8.1l-15.6-2.7c-3.4-0.7-5.4-4.8-3.4-7.5l61.8-106.6
				C901,680.4,899,676.3,895.6,676.3L895.6,676.3z"/>
			<path class="st0" d="M868.5,660.7c20.4,4.8,45.5-2,57-14.9c10.9-12.9,4.1-27.1-16.3-31.9c-20.4-4.8-45.5,2-57,14.9
				C841.3,642.4,848.1,656.6,868.5,660.7L868.5,660.7z"/>
			<path class="st0" d="M1511.9,676.3h-82.1c-3.4,0-6.1,1.4-7.5,4.1l-7.5,12.9c-1.4,2.7,0,6.1,2.7,6.8l14.9,3.4
				c3.4,0.7,5.4,4.8,3.4,7.5l-46.2,80.1c-2,3.4-4.8,5.4-8.8,6.1l-25.1,4.1c-2,0-3.4,1.4-4.8,3.4l-7.5,12.9c-1.4,2.7,0.7,6.8,4.1,6.8
				h114.7c4.1,0,8.1-2,10.2-6.1l5.4-9.5c2-3.4,0-7.5-4.1-8.1l-15.6-2.7c-3.4-0.7-5.4-4.8-3.4-7.5l61.8-106.6
				C1517.3,680.4,1515.3,676.3,1511.9,676.3L1511.9,676.3z"/>
			<path class="st0" d="M1484.1,660.7c20.4,4.8,45.5-2,57-14.9c10.9-12.9,4.1-27.1-16.3-31.9c-20.4-4.8-45.5,2-57,14.9
				C1456.9,642.4,1464.4,656.6,1484.1,660.7L1484.1,660.7z"/>
			<path class="st0" d="M647.2,622H495.8c-2.7,0-5.4,1.4-6.1,4.1l-7.5,12.9c-2,3.4,0,6.8,3.4,7.5l27.1,3.4c3.4,0.7,4.8,4.1,3.4,7.5
				l-76.7,133c-2,3.4-5.4,5.4-8.8,6.1l-38.7,4.1c-2,0-4.1,1.4-5.4,3.4l-7.5,12.2c-2,3.4,0.7,7.5,4.8,7.5H582
				c108.6,0,173.1-66.5,173.1-122.2C755.1,646.5,698.1,622,647.2,622L647.2,622z M674.3,706.9c-4.1,40.7-52.3,84.8-108.6,84.8H523
				c-3.4,0-5.4-3.4-4.1-6.8l71.9-124.2c2.7-4.1,7.5-6.8,12.2-6.8h20.4C657.4,653.9,677,677.7,674.3,706.9"/>
			<path class="st0" d="M1902.9,721.1l21.7-37.3c2-3.4-0.7-7.5-4.1-7.5h-27.1c-2.7,0-4.8,1.4-6.1,3.4l-2,3.4c-2,3.4-6.1,4.1-8.8,1.4
				c-10.2-9.5-25.8-17.6-48.2-17.6c-26.5,0-55.7,8.8-70.6,34.6c-14.3,24.4-6.1,51.6,32.6,67.2c0,0,6.1,2,8.8,3.4
				c14.3,5.4,21.7,10.2,19.7,17.6c-1.4,5.4-6.1,8.8-18.3,8.8c-14.3,0-27.1-6.8-34.6-19.7c-1.4-2-3.4-3.4-6.1-3.4h-31.9
				c-2.7,0-4.8,1.4-6.1,3.4l-22.4,38c-2,3.4,0.7,7.5,4.1,7.5h27.1c2.7,0,5.4-1.4,6.8-4.1l4.1-6.8c1.4-2.7,4.8-2.7,6.8-0.7
				c10.9,10.9,26.5,20.4,51.6,20.4c46.8,0,67.2-22.4,73.3-41.4c8.1-23.8,0.7-46.2-23.8-57c-4.1-2-8.1-3.4-11.5-4.8
				c-16.3-6.1-28.5-12.2-28.5-18.3c0-4.1,3.4-10.2,17-10.2c12.2,0,29.9,7.5,34.6,20.4c0.7,2,2.7,3.4,4.8,3.4h30.5
				C1898.8,725.2,1901.5,723.8,1902.9,721.1L1902.9,721.1z"/>
		</g>
	</g>
	<g>
		<path class="st3" d="M948.5,464.9c67.9-12.9,123.5-19,194.1-19c179.2,0,279.6,43.4,336,97.1h183.9
			c-76.7-130.3-239.6-220.6-420.8-220.6c-110,0-194.8,20.4-265.4,38.7c-57.7,14.9-109.3,23.8-152,27.8l27.8,95
			C861,482.6,922.8,469.7,948.5,464.9z M1481.4,421.5c2-2,6.1-1.4,10.2,0.7c0,0,3.4,2.7,8.1,6.1c4.8,3.4,10.9,7.5,16.3,11.5
			s12.2,7.5,17,10.9c5.4,3.4,8.8,5.4,8.8,5.4c4.1,2.7,5.4,6.1,4.8,8.8c-0.7,2.7-4.1,4.8-8.8,6.1c0,0,0,0-0.7,0
			c-0.7,0.7-1.4,0.7-2,0.7c-2,0-4.1,0-7.5,0c-6.8-0.7-14.9-2.7-25.8-10.2c-10.2-6.8-16.3-14.3-19-19.7c-1.4-2.7-2-4.8-2.7-6.8
			c-0.7-0.7-0.7-1.4-0.7-2c0-0.7,0-0.7,0-0.7C1478.6,427.6,1479.3,423.5,1481.4,421.5z M1380.9,380.1c2-2,5.4-2.7,10.2-1.4
			c0,0,3.4,2,8.8,4.1c2.7,0.7,5.4,2,8.8,3.4c2.7,1.4,6.1,2.7,9.5,4.1c6.1,2,13.6,4.8,19,6.1c5.4,1.4,9.5,2.7,9.5,2.7
			c4.8,2,6.8,4.8,6.8,7.5c-0.7,2.7-3.4,6.1-7.5,8.1c0,0,0,0.7-0.7,0.7s-1.4,0.7-2,0.7c-1.4,0.7-3.4,1.4-6.8,2
			c-6.1,0.7-14.9,0.7-27.1-4.1c-2.7-0.7-5.4-2-8.1-3.4c-2.7-0.7-4.8-2-6.8-3.4c-4.1-2.7-6.8-5.4-8.8-7.5c-2-2.7-3.4-4.8-4.1-6.1
			c0-0.7-0.7-1.4-0.7-2c0-0.7,0-0.7,0-0.7C1378.9,386.2,1378.9,382.1,1380.9,380.1z M1273,361.1c1.4-2,4.8-3.4,9.5-3.4
			c0,0,4.1,0.7,9.5,2c5.4,1.4,12.9,2,19.7,3.4c6.1,0.7,13.6,1.4,19.7,2c2.7,0,4.8,0.7,6.8,0.7c1.4,0,2.7,0,2.7,0
			c4.8,1.4,7.5,3.4,8.1,6.1c0,2.7-1.4,6.1-5.4,9.5c0,0,0,0.7-0.7,0.7c0,0.7-0.7,0.7-1.4,1.4c-2,1.4-4.1,2-6.8,3.4
			c-2.7,1.4-6.1,2-10.9,2.7c-2,0-4.8,0-7.5,0c-2.7,0-5.4,0-8.8-0.7c-6.1-1.4-11.5-2-15.6-4.1s-7.5-3.4-10.2-5.4
			c-2.7-1.4-4.1-3.4-5.4-4.8c0-0.7-0.7-0.7-1.4-2C1272.3,368.6,1271,364.5,1273,361.1z M1171.9,359.7c0,0,16.3,0.7,29.9,0
			c13.6-0.7,29.9-2.7,29.9-2.7c4.8,0,7.5,1.4,8.8,4.1c0.7,2.7-0.7,6.1-3.4,10.2c0,0-0.7,0-0.7,0.7c0,0-0.7,0.7-1.4,1.4
			c-0.7,1.4-2.7,3.4-5.4,4.8c-4.8,3.4-13.6,6.8-26.5,7.5c-12.9,0.7-21.7-2-27.1-4.8c-2.7-1.4-4.8-2.7-6.1-4.1c-0.7-0.7-1.4-1.4-2-2
			c-3.4-3.4-4.8-6.8-4.8-10.2C1164.4,362.4,1167.1,360.4,1171.9,359.7z"/>
		<path class="st3" d="M727.3,492.1c0.7,2.7,3.4,4.8,6.1,4.8c11.5,0,44.1-0.7,93-8.1l-28.5-97.1c-22.4,1.4-42.1,2-57,2
			c-14.9,0-26.5-0.7-33.3-0.7c-4.8,0-8.1,4.1-6.8,8.1L727.3,492.1z"/>
		<path class="st3" d="M870.5,940.1c13.6,2.7,50.2,10.2,71.3,14.9c3.4,0,7.5-3.4,7.5-7.5v-44.1h-84.2v29.9
			C865.1,936.7,867.1,939.4,870.5,940.1z"/>
		<path class="st3" d="M1478,903.4c-56.3,53.6-156.8,97.1-336,97.1c-70.6,0-126.2-6.1-194.1-19c-25.8-4.8-87.6-17.6-96.4-19
			l-27.8,95c42.8,4.1,94.3,12.9,152,27.8c70.6,18.3,155.4,38.7,265.4,38.7c181.9,0,344.1-90.3,420.8-220.6L1478,903.4L1478,903.4z
			 M1240.4,1085.3c-1.4,2.7-4.1,4.1-8.8,4.1c0,0-16.3-2-29.9-2.7c-13.6-0.7-29.9,0-29.9,0c-4.8-0.7-7.5-2.7-8.8-4.8
			c0-3.4,1.4-6.8,4.8-10.2c0.7-0.7,1.4-1.4,2-2c1.4-1.4,3.4-2.7,6.1-4.1c5.4-2.7,14.3-5.4,27.1-4.8c12.9,0.7,21.7,4.1,26.5,7.5
			c2.7,1.4,4.8,3.4,5.4,4.8c0.7,0.7,1.4,1.4,1.4,1.4c0,0.7,0.7,0.7,0.7,0.7C1239.7,1079.2,1241.1,1082.6,1240.4,1085.3z
			 M1340.9,1080.6c0,0-1.4,0-2.7,0c-2,0-4.1,0.7-6.8,0.7c-6.1,0.7-13.6,1.4-19.7,2c-6.8,1.4-14.3,2-19.7,3.4c-5.4,1.4-9.5,2-9.5,2
			c-4.8,0-8.1-1.4-9.5-3.4c-2-3.4-0.7-7.5,2-11.5c0.7-1.4,1.4-1.4,1.4-2c1.4-1.4,2.7-3.4,5.4-4.8c2.7-2,6.1-3.4,10.2-5.4
			c4.1-2,9.5-2.7,15.6-4.1c3.4-0.7,6.1-0.7,8.8-0.7c2.7,0,5.4,0,7.5,0c4.8,0.7,8.1,1.4,10.9,2.7c2.7,1.4,4.8,2,6.8,3.4
			c0.7,0.7,1.4,0.7,1.4,1.4c0.7,0,0.7,0.7,0.7,0.7c4.1,3.4,5.4,6.8,5.4,9.5C1348.3,1077.2,1345.6,1079.2,1340.9,1080.6z
			 M1446.7,1047.3c0,0-4.1,1.4-9.5,2.7c-5.4,1.4-12.9,4.1-19,6.1c-3.4,1.4-6.8,2.7-9.5,4.1c-3.4,1.4-6.1,2.7-8.8,3.4
			c-5.4,2-8.8,4.1-8.8,4.1c-4.8,1.4-8.1,0.7-10.2-1.4s-2-6.1,0-10.9c0,0,0,0,0-0.7c0-0.7,0.7-1.4,0.7-2c0.7-1.4,2-3.4,4.1-6.1
			c2-2,4.8-4.8,8.8-7.5c2-1.4,4.1-2.7,6.8-3.4c2.7-1.4,5.4-2.7,8.1-3.4c12.2-4.8,21-4.8,27.1-4.1c3.4,0.7,5.4,1.4,6.8,2
			c0.7,0,1.4,0.7,2,0.7s0.7,0.7,0.7,0.7c4.1,2,6.8,5.4,7.5,8.1C1453.5,1042.6,1451.5,1045.3,1446.7,1047.3z M1541.8,990.3
			c0,0-3.4,2-8.8,5.4c-4.8,3.4-11.5,6.8-17,10.9c-5.4,4.1-11.5,8.1-16.3,11.5c-4.8,3.4-8.1,6.1-8.1,6.1c-4.1,2-8.1,2.7-10.2,0.7
			c-2-2-2.7-6.1-2-10.9c0,0,0,0,0-0.7c0-0.7,0-1.4,0.7-2c0.7-2,1.4-4.1,2.7-6.8c2.7-5.4,8.8-12.9,19-19.7c10.9-7.5,19-9.5,25.8-10.2
			c3.4,0,5.4,0,7.5,0c0.7,0,1.4,0,2,0.7c0.7,0,0.7,0,0.7,0c4.8,1.4,8.1,3.4,8.8,6.1C1547.2,984.2,1545.8,987.6,1541.8,990.3z"/>
		<path class="st3" d="M733.4,949.6c-2.7,0-5.4,2-6.1,4.8l-26.5,91c-1.4,4.1,2,8.1,6.8,8.1c6.8,0,18.3-0.7,33.3-0.7
			c14.9,0,34.6,0.7,57,2l28.5-97.1C777.5,950.2,744.9,949.6,733.4,949.6z"/>
		<path class="st3" d="M941.8,491.4c-21,4.8-57.7,12.2-71.3,14.9c-3.4,0.7-5.4,3.4-5.4,6.8V543h84.2v-44.1
			C949.2,494.8,945.2,491.4,941.8,491.4z"/>
	</g>
	<g>
		<g>
			<path class="st0" d="M1868.6,931.5c3.7,0,7.3,0.7,10.6,2.1c3.3,1.4,6.2,3.4,8.6,5.8c2.5,2.5,4.4,5.3,5.8,8.6
				c1.4,3.3,2.1,6.8,2.1,10.6c0,3.7-0.7,7.3-2.1,10.6c-1.4,3.3-3.4,6.2-5.8,8.6c-2.5,2.5-5.3,4.4-8.6,5.8c-3.3,1.4-6.8,2.1-10.6,2.1
				s-7.3-0.7-10.6-2.1c-3.3-1.4-6.2-3.4-8.6-5.8c-2.4-2.4-4.4-5.3-5.8-8.6c-1.4-3.3-2.2-6.8-2.2-10.6c0-3.7,0.7-7.3,2.2-10.6
				c1.4-3.3,3.4-6.2,5.8-8.6c2.5-2.5,5.3-4.4,8.6-5.8C1861.3,932.2,1864.8,931.5,1868.6,931.5z M1868.6,936.9c-3,0-5.8,0.6-8.5,1.7
				c-2.6,1.1-4.9,2.7-6.9,4.6c-2,2-3.5,4.2-4.6,6.9c-1.1,2.6-1.7,5.5-1.7,8.5c0,3,0.6,5.8,1.7,8.5c1.1,2.6,2.7,4.9,4.6,6.9
				c1.9,2,4.2,3.5,6.9,4.6c2.6,1.1,5.5,1.7,8.5,1.7s5.8-0.6,8.5-1.7c2.6-1.1,4.9-2.7,6.9-4.6c2-1.9,3.5-4.2,4.6-6.9s1.7-5.5,1.7-8.5
				c0-3-0.6-5.8-1.7-8.5c-1.1-2.6-2.7-4.9-4.6-6.9c-2-2-4.2-3.5-6.9-4.6C1874.4,937.5,1871.6,936.9,1868.6,936.9z M1864.8,971.3
				c0,1.5-0.8,2.3-2.3,2.3h-3.3c-1.6,0-2.4-0.8-2.4-2.3V946c0-1.5,0.8-2.3,2.4-2.3h12.9c1.4,0,2.7,0.3,3.9,0.8
				c1.2,0.5,2.3,1.2,3.2,2.2c0.9,0.9,1.7,2,2.2,3.2c0.5,1.2,0.8,2.5,0.8,3.9c0,1.7-0.4,3.3-1.1,4.7c-0.7,1.4-1.7,2.6-3,3.5
				c-1.2,1-1.5,2-0.8,3.2l3.8,6.4c0.8,1.3,0.4,2-1.1,2h-4.5c-1.5,0-2.7-0.7-3.5-2l-3.8-6.5c-0.4-0.8-1.1-1.1-2-1.1
				c-0.8,0-1.3,0.4-1.3,1.3V971.3z M1864.8,954.9c0,1.6,0.8,2.3,2.3,2.3h3.4c0.9,0,1.7-0.3,2.4-1c0.6-0.7,1-1.5,1-2.4
				s-0.3-1.7-1-2.4c-0.6-0.6-1.4-1-2.4-1h-3.4c-1.5,0-2.3,0.8-2.3,2.3V954.9z"/>
		</g>
	</g>
</g>
</svg>
